<svg xmlns="http://www.w3.org/2000/svg" width="87.151" height="99.911" viewBox="0 0 87.151 99.911">
  <path id="Path_6738" data-name="Path 6738" d="M43.077,99.894A5.837,5.837,0,0,1,40.2,98.5a120.462,120.462,0,0,1-11.618-9.514c-1.285-1.207-4.109-4.108-5.1-5.241A104.979,104.979,0,0,1,11.952,67.466,69.737,69.737,0,0,1,8.425,60.23,100.361,100.361,0,0,1,.193,23.988C.046,21.307,0,19.24.008,16.2A18.394,18.394,0,0,1,.144,12.73a9.007,9.007,0,0,1,1.2-3.241,11.437,11.437,0,0,1,3.887-3.1A69.069,69.069,0,0,1,16.617,2.953c1.206-.272,3.582-.756,4.39-.9l1.1-.2c.372-.067.869-.149,1.1-.18s.623-.1.86-.149.681-.123.982-.162l1.412-.192c.473-.065.984-.136,1.136-.153C29.088.844,29.573.788,30.553.679A128.779,128.779,0,0,1,46.975.048c2.1.072,6.872.347,7.25.418.1.02.575.057,1.044.084s1.24.1,1.713.154,1.226.147,1.688.2c2.138.243,3.995.485,4.789.623.286.05,1.046.176,1.688.272A61.584,61.584,0,0,1,81.659,6.465a9.551,9.551,0,0,1,3.394,2.3A7.606,7.606,0,0,1,87,12.487a105.9,105.9,0,0,1-.218,13.839,108.915,108.915,0,0,1-2.79,18.181,96.725,96.725,0,0,1-6.616,18.618,38.833,38.833,0,0,1-2.136,4.154c-.454.773-.838,1.435-.856,1.47s-.113.189-.215.345q-.136.2-.257.409l-.338.561c-.146.241-.272.466-.289.5a.272.272,0,0,1-.063.094c-.02.018-.159.228-.308.469s-.376.6-.505.79a2.035,2.035,0,0,0-.236.417.1.1,0,0,1-.046.084,2.279,2.279,0,0,0-.383.606c0,.031-.042.074-.093.093s-.091.064-.091.1a3.5,3.5,0,0,1-.338.56,3.62,3.62,0,0,0-.338.556c0,.034-.041.076-.091.1a.154.154,0,0,0-.093.136c0,.053-.023.1-.052.1s-.09.078-.136.172a2.192,2.192,0,0,1-.136.234c-.207.273-.456.629-.9,1.278s-.9,1.283-1.529,2.127a89.3,89.3,0,0,1-20.384,19.76,7.678,7.678,0,0,1-2.725,1.527,5.327,5.327,0,0,1-1.771.136Zm1.571-.567a7.371,7.371,0,0,0,2.613-1.443C58.855,89.328,65.334,82.37,72.719,70.541A62.69,62.69,0,0,0,76.455,64a106.98,106.98,0,0,0,4.968-12.189A107.907,107.907,0,0,0,86.6,21.23c.1-2.679.08-7.87-.03-8.514a7.469,7.469,0,0,0-2.921-4.605,25.7,25.7,0,0,0-3.864-1.982A66.225,66.225,0,0,0,65.913,2.4c-3.349-.584-7.728-1.124-11.941-1.47-.439-.035-.954-.079-1.136-.1-.574-.052-3.27-.211-4.819-.285C45.062.413,39.706.483,35.954.712A115.146,115.146,0,0,0,7.993,5.818a14.288,14.288,0,0,0-3.8,1.717,6.876,6.876,0,0,0-3.042,3.348c-.657,1.6-.774,2.954-.681,7.789A127.025,127.025,0,0,0,1.67,34.6,94.875,94.875,0,0,0,9.805,62.186a58.364,58.364,0,0,0,4.747,8.653c.649,1.04,2.413,3.706,3.143,4.75A82.975,82.975,0,0,0,34.549,93.564c1.852,1.508,6.254,4.852,7,5.314a5.74,5.74,0,0,0,1.313.512,4.75,4.75,0,0,0,1.788-.068ZM43,96.807a14.86,14.86,0,0,1-2.972-2.075C29.31,86.3,23.259,79.709,17.221,69.871c-.808-1.316-1.887-3.16-2.613-4.468s-3.034-6.2-4.188-8.871A89.133,89.133,0,0,1,3.391,25.763,84.682,84.682,0,0,1,3.32,15.08a8.72,8.72,0,0,1,1.206-3.229,6.784,6.784,0,0,1,2.83-2.316A85.684,85.684,0,0,1,18.89,6.211,114.928,114.928,0,0,1,41.173,3.486c2.155-.061,5.9-.041,6.661.037.136.014.659.042,1.166.061A133.447,133.447,0,0,1,65.022,5.311,53.385,53.385,0,0,1,78.927,9.423l1.533.73c2.076.98,3.026,2.493,3.339,5.322a121.334,121.334,0,0,1-.7,13.134C81.715,42.357,78.936,52.4,73.705,62.557a132.005,132.005,0,0,1-8.039,13.352c-4.378,6.237-8.616,10.606-17.155,17.649l-1.6,1.33c-.708.589-1.476,1.2-1.7,1.353a2.709,2.709,0,0,1-2.215.565ZM27.084,74.473c.753-.349,1-.88,1.1-2.353.068-.98.256-1.352.74-1.454l.244-.052-.031-.59a17.474,17.474,0,0,1,.016-2.384,6.539,6.539,0,0,1,.681-.969,10.914,10.914,0,0,0,1.456-2.134,8.686,8.686,0,0,0,.243-1.2c.147-1.012.083-.867,1.192-2.706.33-.545.817-1.456,1.09-2.023a7.47,7.47,0,0,1,.73-1.283q.181-.2.356-.4a.428.428,0,0,1,.184-.144c.125,0,.492.394.628.681s.136.353.136,1.752c0,1.456,0,1.458.144,1.578a.545.545,0,0,0,.286.12c.136,0,.136,0-.033-.189-.251-.272-.309-.649-.264-1.709a2.861,2.861,0,0,0-.1-1.318,2.044,2.044,0,0,1-.117-.613c.018-.192.033-.2.3-.222.312-.023.452-.127.62-.461a1.362,1.362,0,0,0,.128-.781c-.01-.172-.056-.223-.328-.375a1.007,1.007,0,0,1-.612-.929,12.559,12.559,0,0,1,.11-2.887c.112-.376.163-.381.6-.076a10.763,10.763,0,0,0,2.375,1.027,4.34,4.34,0,0,0,2.2.049,15.184,15.184,0,0,0,1.856-1.443,9.47,9.47,0,0,1,.751-.634c.206-.15.409-.313.609-.48a.839.839,0,0,1,.381-.207,2.4,2.4,0,0,1,1.006.417c.371.317.184.636-.714,1.226a5.887,5.887,0,0,0-1.818,2,26.726,26.726,0,0,0-.907,2.733,2.527,2.527,0,0,0,.409,1.09,8.518,8.518,0,0,1,1.17,1.925,5.208,5.208,0,0,0,.177.545c.2.485-.04.753-.847.954-.312.078-.723.159-.916.183l-.349.042.1.154c.084.136.106.136.153.054s.18-.1.755-.1A2.421,2.421,0,0,0,44,60.76l.323-.136.154.195c.172.218,1.166,1.26,1.166,1.226a11.645,11.645,0,0,0-.852-1.969c-.263-.5-.6-1.173-.755-1.5a8.911,8.911,0,0,0-.778-1.275,5.585,5.585,0,0,1-.545-.843,2.462,2.462,0,0,1,.109-1.278c.237-.681.426-.635.428.1,0,.535.069.7.659,1.56a7.006,7.006,0,0,1,1.063,1.927,9.916,9.916,0,0,0,1.053,1.982,5.656,5.656,0,0,1,.6,1.635.587.587,0,0,1-.207.368l-.207.2-.136-.17c-.072-.094-.15-.151-.174-.127a1.557,1.557,0,0,0-.068.446c-.025.4-.022.409.2.6s.222.222.222.579a1.048,1.048,0,0,0,.409.946,3.358,3.358,0,0,0,.877.272l.681.136.243-.195a3.6,3.6,0,0,0,.986-1.2.7.7,0,0,0-.136-.711,1.177,1.177,0,0,1-.208-.272c-.124-.244-.016-.307.531-.307.447,0,.482-.011.623-.181a9.567,9.567,0,0,0,.817-1.837,2.6,2.6,0,0,0,.151-1.04,2.624,2.624,0,0,1,.158-1.063,1.882,1.882,0,0,0,0-1.536,1.687,1.687,0,0,0-.771-.777c-.5-.32-.439-.52.251-.786.394-.151.594-.32.594-.5,0-.147,0-.147-.545-.112s-.545.035-.659-.136c-.339-.5-.533-.574-.883-.328a5.436,5.436,0,0,0-1.226,2.266c0,.252.272.507.783.718a5.971,5.971,0,0,1,.616.29.965.965,0,0,1,.38.877,2.121,2.121,0,0,0,.064.557,2.275,2.275,0,0,1,.067.572,1.463,1.463,0,0,1-.187.794,5.894,5.894,0,0,1-1.226,1.6c-.219.084-.447-.1-.557-.443a.609.609,0,0,1,.053-.589,3.075,3.075,0,0,0,.255-1.879,5.994,5.994,0,0,0-.136-1.057c-.127-.283-.328-.2-.755.326-.4.49-.661.7-.877.7s-.283-.211-.247-.714a4.935,4.935,0,0,1,.586-1.82A28.357,28.357,0,0,0,48,54.117a5.984,5.984,0,0,0,.029-2.155,1.4,1.4,0,0,0-.409-.681A12.784,12.784,0,0,1,45.98,48.91c-.444-.853-.745-1.749-.585-1.749a7.07,7.07,0,0,1,1.044,1.362c.342.578.52.726.817.681.223-.03.229-.025.266.2a4.38,4.38,0,0,0,1.011,2.11,9.831,9.831,0,0,0,1.593,1.3,7.959,7.959,0,0,0,1.6.533,5.807,5.807,0,0,0,1.522.127c1.048,0,1.286-.046,1.536-.3a1.688,1.688,0,0,1,.481-.255,5.423,5.423,0,0,0,.507-.21c.215-.114.379-.368.338-.522-.033-.121-.09-.136-.817-.169A5.95,5.95,0,0,1,52.9,51.45q-.418-.211-.854-.384a2.281,2.281,0,0,1-1.4-1.136c-.064-.207.06-.382.3-.429a.522.522,0,0,0,.248-.1.178.178,0,0,1,.136-.056c.262,0,.272-.079.136-.67-.163-.708-.165-.828-.01-.828.252,0,.432.157.779.681a7.909,7.909,0,0,0,.706.9c.309.322.373.361.6.361a.474.474,0,0,0,.285-.06.568.568,0,0,0-.089-.309,1.341,1.341,0,0,1-.125-.563.643.643,0,0,1,.191-.534c.177-.2.217-.221.545-.221a.986.986,0,0,1,.918.518c.136.211.173.232.426.232a.807.807,0,0,0,.514-.166c.2-.136.258-.155.384-.1a.954.954,0,0,1,.3.307,2.636,2.636,0,0,0,.335.416c.173.166.211.177.516.136a1.3,1.3,0,0,1,.492.02c.272.108.311.256.193.879-.1.522-.1.574,0,.831a1.9,1.9,0,0,0,.289.486c.208.237.211.248.305,1.034a3.951,3.951,0,0,1-.3,2.1q-.233.619-.465,1.237a3.815,3.815,0,0,1-.4.808l-.174.213.251.193a3.469,3.469,0,0,1,.918,1.58,4.846,4.846,0,0,1,.545,1.951,3.225,3.225,0,0,1-.252,1.263c-.347,1.063-.357,1.471-.045,1.888a1.139,1.139,0,0,1,.215.391,3.3,3.3,0,0,1-.337.672c-.767,1.289-.764,1.875.012,2.6a1.574,1.574,0,0,0,.989.545c.153-.018.165-.042.183-.362.022-.386.193-.643.409-.612.108.015.136.08.166.446.052.529.079.6.221.6A2.861,2.861,0,0,0,62.248,67.2l.093-.183-.273.188a3.109,3.109,0,0,0-.409.35.371.371,0,0,1-.575.037c-.217-.173-.252-.409-.136-.883.136-.545.1-.97-.121-1.159-.136-.123-.233-.144-.638-.144a1.865,1.865,0,0,1-.561-.059c-.165-.106.025-.36.421-.563.575-.3.606-.5.112-.762-.328-.17-.409-.279-.409-.56a.817.817,0,0,1,.545-.749.722.722,0,0,0,.556-.753,1.128,1.128,0,0,0-.516-.992c-.6-.462-.589-.436-.589-.995,0-.409.022-.525.113-.617s.123-.247.147-.624a2.3,2.3,0,0,1,.163-.779c.2-.428.183-.537-.215-1.136a2.71,2.71,0,0,1-.331-1.661,4.236,4.236,0,0,0-.056-.826,1.571,1.571,0,0,1,.1-.963c.178-.069.454.124.65.458.215.367.26.4.309.211s.35-.155,1.057.158a5.662,5.662,0,0,0,4.368.352,6.436,6.436,0,0,0,1.8-1.59c.238-.4.223-.409-.768-.371a5.528,5.528,0,0,1-2.271-.282,3.951,3.951,0,0,1-1.537-1.048,9.751,9.751,0,0,0-.916-.872,5.226,5.226,0,0,1-.669-.629.154.154,0,0,0-.136-.093,5.4,5.4,0,0,1-1.474-.693c-.252-.168-.571-.362-.71-.435a12.73,12.73,0,0,0-3.168-.655l-.567-.042-.041-.228a3.211,3.211,0,0,0-.545-1.283c-.309-.485-.371-.628-.372-.857A2.715,2.715,0,0,0,54.1,44.1a3.966,3.966,0,0,1-.466-1.034,9.364,9.364,0,0,0-.371-1.042,5.439,5.439,0,0,1-.486-1.771,7.425,7.425,0,0,0-.482-1.976,10.408,10.408,0,0,1-.377-1.335,3.86,3.86,0,0,0-.767-1.907,4.536,4.536,0,0,1-.493-.879,1.1,1.1,0,0,0-.211-.409,5.405,5.405,0,0,1-.409-.594q-.184-.309-.379-.612a.862.862,0,0,1-.136-.383c0-.272.147-.345.609-.327.971.038,1.724.781,2.706,2.67a5.642,5.642,0,0,0,2.221,2.684,1.559,1.559,0,0,0,.723.221c.367,0,.5-.136.545-.556a4.521,4.521,0,0,0-.369-1.755,5.107,5.107,0,0,1-.283-1.42c-.046-.773-.08-.817-.777-1.064-.6-.211-.634-.32-.143-.447a1.888,1.888,0,0,1,1.572.409c.372.26.443.286.681.26.214-.025.331-.094.617-.365.323-.307.352-.354.328-.559a1.155,1.155,0,0,1,.358-.838c.181-.165.285-.424.5-1.243a3.567,3.567,0,0,0-.223-2.756,9.524,9.524,0,0,0-2.95-2.376c-.869-.409-.913-.409-5.624-.469a47.593,47.593,0,0,1-8.274-.409c-.981-.338-1.687-.954-1.583-1.371a1.266,1.266,0,0,1,.681-.681c.545-.213,1.319-.061,2.82.552a7.814,7.814,0,0,0,3.8.651,7.494,7.494,0,0,0,2.818-.433c.1-.078.1-.086,0-.183a5.057,5.057,0,0,0-1-.334c-1.072-.279-1.657-.5-1.657-.639,0-.084.106-.091.817-.061a9.985,9.985,0,0,1,2.452.42,4.135,4.135,0,0,0,1.76.057c.214-.076.253-.236.1-.4a13.393,13.393,0,0,0-4.21-1.531,14.306,14.306,0,0,0-3.6-.237,8.246,8.246,0,0,0-4.059.729,5.6,5.6,0,0,0-2.125,1.966c-.361.737-.117,1.226.922,1.864a5.722,5.722,0,0,0,2.487.793,48.264,48.264,0,0,0,7.95.388c2.067,0,3.715.022,3.929.059a5.071,5.071,0,0,1,1.771.644,4.71,4.71,0,0,1,1.313,1.567,1.557,1.557,0,0,1,.225.906,1.256,1.256,0,0,1-.173.793,3.112,3.112,0,0,1-.966,1.09,3.179,3.179,0,0,1-1.8-.317,3.7,3.7,0,0,0-1.35-.309,4.192,4.192,0,0,1-1.943-.582A19.8,19.8,0,0,0,47.389,28a2.236,2.236,0,0,0-1.39.281,7.239,7.239,0,0,0-2.07,1.668A8.42,8.42,0,0,1,41.74,31.7c-1.1.538-4.26,2.342-4.553,2.6a9.693,9.693,0,0,0-1.462,1.8,6.442,6.442,0,0,0-.8,3.487,4.051,4.051,0,0,1-.245,1.763,17.7,17.7,0,0,1-1.549,2.715,26.694,26.694,0,0,0-1.587,2.666,7.163,7.163,0,0,0-.86,3.85l-.044,1.437-.222.659c-.123.362-.377,1.037-.568,1.5-.7,1.714-.691,1.625-.756,4.777l-.048,2.316-.258.518a9.9,9.9,0,0,1-.526.916,4.387,4.387,0,0,0-.561,2.378q-.057.692-.125,1.384c-.026.229-.121.362-.8,1.124-1.3,1.454-1.8,2.21-1.8,2.734,0,.259-.019.294-.262.463a5.177,5.177,0,0,0-1.371,1.594,1.752,1.752,0,0,0-.173,1.39c.18.354.3.3.808-.4l.451-.614.147.136a.473.473,0,0,1,.147.219,3.844,3.844,0,0,1-.248.6,2.18,2.18,0,0,0-.23.681c.023.21.237.241,1.522.226.909-.011,1.045-.026,1.32-.154Zm-.571-3.388a1.527,1.527,0,0,1-.477-1.09c.045-.243.1-.259.424-.123a.65.65,0,0,0,.8-.125c.3-.234.4-.262.514-.144s.09.3-.056.583l-.221.422a.982.982,0,0,1-.988.477Zm1.98-5.9c-.136-.136-.151-.2-.151-.681a3.976,3.976,0,0,0-.03-.612.234.234,0,0,1,.03-.177c.05-.078.091-.06.248.109a.488.488,0,0,0,.439.207.531.531,0,0,0,.392-.136c.188-.18.331-.114.324.146a1.5,1.5,0,0,1-.629,1.134c-.309.2-.435.207-.627.011Zm19.537-.561a1.2,1.2,0,0,1-.357-.144,2.135,2.135,0,0,1-.136-1.063c.129-.376.593-.2.708.266.067.272.078.279.305.279.272,0,.362.116.362.456,0,.191-.022.219-.192.253a1.142,1.142,0,0,1-.691-.046ZM29.772,59.441c-.258-.116-.347-.422-.316-1.072a1.846,1.846,0,0,1,.6-1.38l.2-.136.154.185a.455.455,0,0,0,.3.185,2.105,2.105,0,0,0,1.037-.6q.323-.307.655-.6a1.379,1.379,0,0,0,.545-1.283c0-.83-.061-1-.451-1.362a1.4,1.4,0,0,1-.545-1.131c0-.535.256-.837.718-.837.253,0,.431.172.749.728.527.917,1.3,1.271,1.8.832.243-.211.322-.225.458-.087.079.08.1.263.1,1a6.372,6.372,0,0,0,.056,1.048c.038.1.166.2.4.293a.668.668,0,0,1,.507.8.7.7,0,0,1-.545.644c-.343.094-.6,0-1.647-.6a.886.886,0,0,0-.892-.056,3.055,3.055,0,0,0-.463.53,3.182,3.182,0,0,1-.922.845,3.438,3.438,0,0,0-1.249,1.268c-.272.443-.612.817-.729.817a1.077,1.077,0,0,0-.195.03.623.623,0,0,1-.319-.059Zm9.864-13.224a4.075,4.075,0,0,0-.706-.255,1.09,1.09,0,0,1-.737-.387c-.084-.136-.084-.185,0-.527a.97.97,0,0,0-.162-.985c-.109-.1-.215-.119-.661-.109a3.011,3.011,0,0,0-.8.109c-.147.055-.273.1-.283.1a3.8,3.8,0,0,1,.1-.817.559.559,0,0,1,.273-.366c.366-.23.417-.364.377-.991-.048-.753.046-1.125.285-1.13a1.074,1.074,0,0,1,.282.233,1.62,1.62,0,0,1,.369.672c.24.744.341.906.57.907.366,0,.383.038.383.918a1.8,1.8,0,0,0,.7,1.754c.985.98.992,1.337.014.875ZM49.618,41.2a3.641,3.641,0,0,1,0-.718l.041-.552-.174-.116c-.155-.1-.312-.117-1.436-.119-1.1,0-1.292-.016-1.507-.119l-.245-.117.184-.046a5.257,5.257,0,0,1,.767-.053,1.811,1.811,0,0,0,1.226-.285c.8-.6.638-1.342-.545-2.537-.741-.745-.871-.954-.843-1.328l.019-.262.307.316a4.223,4.223,0,0,1,.52.681A25.443,25.443,0,0,0,49.8,38.556a2.281,2.281,0,0,1,.74,1.928,1.165,1.165,0,0,1-.681.839c-.169.033-.2.019-.232-.128Zm-1.335-9.89a4.166,4.166,0,0,1-.3-.381,6.792,6.792,0,0,0-.433-.545c-.35-.409-.4-.552-.238-.714a1.407,1.407,0,0,1,1.162,0,1.589,1.589,0,0,1,.594,1.251l.038.459-.185-.042c-.136-.031-.195-.016-.222.056-.053.142-.245.108-.416-.083Zm-1.8-8.807a3.825,3.825,0,0,1-.409-.155c-.35-.151-.435-.332-.233-.5.178-.147.317-.136.628.019a2.007,2.007,0,0,0,.627.163,1.187,1.187,0,0,1,.6.189c.252.173.279.233.136.29a6.824,6.824,0,0,1-1.345,0ZM33.843,71.323A3,3,0,0,0,35,69.961a3.987,3.987,0,0,1,.587-.873,1.946,1.946,0,0,0,.6-1.14,6.39,6.39,0,0,1,.922-1.9,3.515,3.515,0,0,1,1.54-1.491c1.157-.632,1.226-.717,1.3-1.6a3.3,3.3,0,0,1,.136-.8,4.658,4.658,0,0,1,1.162-1.074l.362-.243H39.921a10.913,10.913,0,0,0-2.121.1,3.087,3.087,0,0,1-.718.078l-.3-.019-.383.969a9.264,9.264,0,0,0-.384,1.09,4.678,4.678,0,0,1-.311,1.159,7.568,7.568,0,0,1-1.477,1.564,1.117,1.117,0,0,1-.409.123.681.681,0,0,0-.559.42,1.917,1.917,0,0,1-.508.486,6.875,6.875,0,0,0-1.41,1.312,2.841,2.841,0,0,0-.3,1.469c0,.666.136,1.245.281,1.245a2.221,2.221,0,0,0,.529-.312c.7-.5.846-.4.418.312a2.407,2.407,0,0,0-.245.478c0,.121.435.2.982.187a1.619,1.619,0,0,0,.835-.181Zm.6-3.406c-.394-.293-.762-.67-.762-.783,0-.063.146-.177.375-.3l.375-.192.249.168a.973.973,0,0,0,1.018.1c.447-.173.5-.143.429.259a2.224,2.224,0,0,1-.129.476,1.278,1.278,0,0,1-.944.418.628.628,0,0,1-.61-.15Zm6.453.113c.136-.035.072-.049-.266-.055-.392,0-.447-.022-.429-.117.011-.06.163-.18.338-.266a2.409,2.409,0,0,0,.368-.208,1.809,1.809,0,0,0,.05-.545c0-.59.084-.714.545-.8.322-.061.463-.191.463-.422,0-.108-.065-.172-.272-.263-.338-.153-.455-.338-.3-.478l.616-.545c.45-.394.518-.482.59-.764a6.165,6.165,0,0,0,.245-1.511c-.059-.168-.272-.4-.372-.4a.409.409,0,0,1-.2-.125q-.123-.125-.123-.042a5.154,5.154,0,0,1-.409.766c-.225.376-.519.916-.654,1.2a1.44,1.44,0,0,1-.62.778,3.446,3.446,0,0,0-1.57,2.563c-.064.516-.022.857.1.857a1.383,1.383,0,0,0,.409-.281,1.286,1.286,0,0,1,.431-.281c.1,0,.1.046.065.426l-.042.426.2.067a1.564,1.564,0,0,0,.817.016ZM60.065,46.5a3.278,3.278,0,0,0,.482-.545l.273-.376-.155-.195a10.6,10.6,0,0,1-1.29-1.942,5.028,5.028,0,0,1-.338-.782c0-.151.191-.347.559-.585.834-.535.924-.76.954-2.379a9.707,9.707,0,0,0-.046-1.561,3.322,3.322,0,0,0-.766-1.516l-.32-.358-.24.074a1.894,1.894,0,0,0-.892.858,2.452,2.452,0,0,0,.074,1.628,5.127,5.127,0,0,1,.189,1.219,6,6,0,0,1-.286,1.808,9.81,9.81,0,0,0-.343,2.642,2.615,2.615,0,0,0,.319,1.571,1.362,1.362,0,0,0,1.82.435ZM8.271,22.831a34.929,34.929,0,0,1,3.3-1.416l1.059-.4v-.853a3.2,3.2,0,0,0-.056-.86c-.076,0-1.877.744-2.482,1.025a4.445,4.445,0,0,1-.544.219c-.03,0-.053-1.929-.053-4.4,0-2.422-.02-4.4-.046-4.406s-.45.189-.944.422l-.9.422-.02,5.186c-.015,2.852-.016,5.207,0,5.233.048.1.313.037.692-.168Zm71.221-2.206c-.011-1.226-.038-3.591-.061-5.252l-.042-3.018-.8-.339a5.25,5.25,0,0,0-.967-.341h-.169V22.094l.26.071c.144.038.579.208.967.376s.733.309.767.312a15.616,15.616,0,0,0,.042-2.228Zm-3.4-6.643.008-2.912-.691-.233c-.38-.128-.738-.259-.8-.29a.74.74,0,0,0-.292-.059H74.14l-.014,2.639v2.718c.045.347-.26-.337-1.346-3.022a20.4,20.4,0,0,0-1.371-3.153A9.859,9.859,0,0,0,69.847,9.3h-.189V19.793h.157c.128,0,1.327.282,1.762.409.1.031.106-.136.069-3.173a26.306,26.306,0,0,1,.029-3.134c.035.034.713,1.665,1.5,3.621l1.441,3.559.7.222.7.222.038-2.316c.02-1.273.041-3.624.046-5.225ZM13.466,20.766a7.941,7.941,0,0,1,.789-.282c.334-.1.61-.2.614-.2s.136-.681.305-1.5l.3-1.48.282-.084a5.074,5.074,0,0,1,1.657-.362c.025.041.165.614.312,1.277s.285,1.226.307,1.249a4.284,4.284,0,0,0,.926-.163c.729-.173.883-.229.868-.315-.011-.057-.24-.869-.511-1.8s-.892-3.091-1.383-4.793-.9-3.1-.916-3.117a3.815,3.815,0,0,0-.655.136c-.346.091-.7.173-.781.181-.149.016-.166.086-.9,3.421-.409,1.873-.969,4.4-1.237,5.612-.484,2.188-.486,2.207-.358,2.26.178.074.18.074.386-.031Zm2.292-4.827c0-.1.614-3.162.654-3.262s.121.17.48,1.771l.263,1.172-.252.065c-.264.069-.852.232-1.035.286-.059.018-.108,0-.108-.026Zm52.57-1.805.037-5.2-.352-.072q-.5-.1-1-.215a7.242,7.242,0,0,0-.752-.136c-.1,0-.109.23-.123,3.756-.015,3.638,0,6.668.046,6.71a18.987,18.987,0,0,0,2.064.391c.02-.02.054-2.375.075-5.233Zm-46.7,4.51q.4-.082.8-.157c.011,0,.026-1.188.034-2.639a11.638,11.638,0,0,1,.083-2.484c.037.086.448,1.2.916,2.484s.879,2.327.916,2.326c.2,0,.18.052,1.459-4.372.174-.6.339-1.12.367-1.153s.05,1.127.05,2.578.02,2.636.046,2.636c.074,0,1.439-.181,1.646-.218l.188-.033-.02-5.041c-.011-2.774-.035-5.138-.053-5.254-.03-.2-.045-.207-.228-.176a9.574,9.574,0,0,1-1.546.15c-.086-.016-.168-.012-.181.011s-.4,1.263-.861,2.756-.865,2.808-.9,2.923-.078.195-.091.18S23.843,12,23.366,10.61q-.44-1.3-.883-2.589c-.016-.048-.248-.025-.751.076a8.573,8.573,0,0,1-.917.147h-.189l-.045,1.971c-.022,1.09-.041,3.447-.041,5.243,0,3.491-.016,3.281.255,3.33.022,0,.394-.063.826-.149Zm43.166-5.177.015-5.226-.136-.03A16.536,16.536,0,0,0,63,7.925h-.2l.034,2.03c.033,1.966.03,2.03-.083,2.03-.064,0-.572-.069-1.129-.155s-1.034-.155-1.059-.157-.046-.928-.046-2.061V7.554l-.136-.029C60.1,7.468,58.821,7.3,58.655,7.3h-.17V17.775l.967.128c.531.071.984.119,1,.108s.023-1.09,0-2.406l-.026-2.391.147.035c.08.019.6.1,1.144.176l1,.136v4.853h.2a9.675,9.675,0,0,1,.967.147c.422.079.794.136.828.136s.067-1.816.078-5.239Zm-9.48,4.108a2.474,2.474,0,0,0,1.83-1.789,7.47,7.47,0,0,0,.116-2.121V11.925H54.433v.3c0,.166-.018.518-.04.781l-.04.478h1.2l-.022.832c-.02.778-.033.849-.185,1.09-.454.7-1.392.574-1.94-.255-.4-.6-.409-.74-.409-3.379,0-2.323,0-2.38.136-2.63a1.48,1.48,0,0,1,.741-.681c.093-.02.2-.048.24-.06a1.1,1.1,0,0,1,.732.3,1.57,1.57,0,0,1,.5.954l.038.282h.913c1.042,0,.967.057.817-.632a2.88,2.88,0,0,0-2.873-2.378,3.09,3.09,0,0,0-3,2.316,17.985,17.985,0,0,0-.087,2.745c0,2.725.035,3.053.4,3.793a3.858,3.858,0,0,0,1.184,1.337A4.018,4.018,0,0,0,54,17.629a3.875,3.875,0,0,0,1.309-.05Zm-23.225-.342c2.1-.18,2.24-.219,2.773-.8a3.511,3.511,0,0,0,.256-4.164,1.545,1.545,0,0,0-.789-.409c-.079,0-.029-.049.144-.136.926-.467,1.2-2.416.545-3.833A2.219,2.219,0,0,0,33.943,6.75L33.6,6.589l-1.014.076c-1.038.078-3.029.264-3.053.285S29.5,9.32,29.474,12.2l-.046,5.237.578-.038q1.041-.076,2.082-.166Zm-.817-1.476a12.916,12.916,0,0,1-.046-1.5v-1.44l.906-.035.906-.035.2.2a2.316,2.316,0,0,1,.368.545,1.625,1.625,0,0,1,.166.906,1.3,1.3,0,0,1-.172.858c-.26.451-.417.51-1.425.535a4.782,4.782,0,0,1-.9-.025Zm.305-4.571-.354-.023L31.237,9.8l.016-1.362.837-.018.837-.018.283.322a1.561,1.561,0,0,1-.144,2.353c-.279.144-.5.158-1.5.094Zm8.874,5.827a2.812,2.812,0,0,0,2.316-2.418c.031-.252.05-1.582.042-2.957-.016-2.756-.026-2.846-.426-3.624a3.729,3.729,0,0,0-1.244-1.294,3.679,3.679,0,0,0-1.425-.409,3.2,3.2,0,0,0-2.842,1.952c-.421.865-.443,1.09-.392,3.935.046,2.679.072,2.9.382,3.485a3.349,3.349,0,0,0,3.6,1.335ZM39.14,15.394a1.4,1.4,0,0,1-.763-.631l-.157-.272-.012-2.615-.014-2.613.169-.352a1.309,1.309,0,0,1,2.18-.345,1.715,1.715,0,0,1,.5,1.064c.029.21.06,1.362.069,2.568.019,2.17.018,2.189-.123,2.478a1.527,1.527,0,0,1-1.86.715ZM50.2,16.963c0-.044-.4-1.1-.89-2.342s-.89-2.289-.89-2.316.1-.075.228-.1c.91-.174,1.428-1.079,1.429-2.5a3.587,3.587,0,0,0-1.394-3.072c-.315-.188-.817-.234-3.194-.3L44,6.291V16.782l.2.031c.109.016.545.035.954.041l.755.011-.01-2.236L45.887,12.4l.515-.018.515-.018.545,1.8q.35,1.15.707,2.3l.159.5.67.018c.369.01.713.027.763.04.221.052.429.031.429-.042Zm-4.318-6.022a13.786,13.786,0,0,1-.041-1.461V8.066l.756-.045c.838-.049,1.082.007,1.407.324A2.044,2.044,0,0,1,47.95,10.8l-.213.191h-.909a5.93,5.93,0,0,1-.95-.042Z" transform="translate(0.021 -0.007)" fill="#fff"/>
</svg>
